<svg width="163" height="103" viewBox="0 0 163 103" fill="none" xmlns="http://www.w3.org/2000/svg">
<path d="M76.12 73.4799C78.0933 72.5999 79.96 72.1599 81.72 72.1599C84.0133 72.1599 85.1867 73.5065 85.24 76.1999H81C78.84 76.1999 77.0933 76.7332 75.76 77.7999C74.4533 78.8665 73.8 80.3732 73.8 82.3199C73.8 84.1865 74.3733 85.6799 75.52 86.7999C76.6933 87.9199 78.4 88.4799 80.64 88.4799C81.6 88.4799 82.56 88.2532 83.52 87.7999C84.48 87.3465 85.3333 86.7599 86.08 86.0399L86.76 87.9999H89.76V75.0399C89.76 73.7332 89.4 72.5599 88.68 71.5199C87.96 70.4532 86.9733 69.6132 85.72 68.9999C84.4933 68.3865 83.1333 68.0799 81.64 68.0799C80.7333 68.0799 79.5467 68.2532 78.08 68.5999C76.64 68.9465 75.5733 69.3465 74.88 69.7999L76.12 73.4799ZM77.72 82.3199C77.72 81.4399 78 80.7065 78.56 80.1199C79.1467 79.5065 79.9333 79.1999 80.92 79.1999H85.28V82.6799C84.6133 83.3732 83.8667 83.9199 83.04 84.3199C82.2133 84.7199 81.3867 84.9199 80.56 84.9199C79.68 84.9199 78.9867 84.6665 78.48 84.1599C77.9733 83.6265 77.72 83.0132 77.72 82.3199ZM98.7219 75.6399C99.7885 74.6799 100.962 73.8665 102.242 73.1999C103.522 72.5332 104.642 72.1999 105.602 72.1999L104.682 68.5999C103.749 68.5999 102.655 68.9332 101.402 69.5999C100.175 70.2665 99.0819 70.9999 98.1219 71.7999L96.6419 68.5999H94.2419V87.9999H98.7219V75.6399ZM116.984 68.0799C118.958 68.0799 120.678 68.5065 122.144 69.3599C123.611 70.1865 124.731 71.3732 125.504 72.9199C126.304 74.4665 126.704 76.2799 126.704 78.3599C126.704 80.3599 126.304 82.1332 125.504 83.6799C124.704 85.1999 123.558 86.3865 122.064 87.2399C120.598 88.0932 118.878 88.5199 116.904 88.5199C116.184 88.5199 115.371 88.3599 114.464 88.0399C113.584 87.7199 112.758 87.2932 111.984 86.7599L111.064 87.9999H108.704V60.1999L113.184 59.7599V69.1199C114.491 68.4265 115.758 68.0799 116.984 68.0799ZM116.904 84.6399C118.504 84.6399 119.758 84.0532 120.664 82.8799C121.598 81.7065 122.064 80.1999 122.064 78.3599C122.064 76.4399 121.611 74.8932 120.704 73.7199C119.798 72.5199 118.531 71.9199 116.904 71.9199C116.211 71.9199 115.558 72.0265 114.944 72.2399C114.358 72.4532 113.771 72.7732 113.184 73.1999V83.4399C114.278 84.2399 115.518 84.6399 116.904 84.6399ZM147.061 78.1599C147.061 75.2265 146.328 72.8132 144.861 70.9199C143.395 69.0265 141.235 68.0799 138.381 68.0799C136.435 68.0799 134.741 68.5065 133.301 69.3599C131.888 70.2132 130.795 71.4132 130.021 72.9599C129.275 74.4799 128.901 76.2532 128.901 78.2799C128.901 81.4265 129.821 83.9199 131.661 85.7599C133.528 87.5732 136.221 88.4799 139.741 88.4799C142.355 88.4799 144.741 87.7332 146.901 86.2399L145.541 82.9599C144.395 83.5465 143.408 83.9865 142.581 84.2799C141.781 84.5465 140.861 84.6799 139.821 84.6799C136.088 84.6799 134.021 82.9465 133.621 79.4799H147.061V78.1599ZM133.701 76.4799C133.888 75.0399 134.368 73.9199 135.141 73.1199C135.941 72.3199 136.981 71.9199 138.261 71.9199C139.515 71.9199 140.515 72.3065 141.261 73.0799C142.008 73.8532 142.501 74.9865 142.741 76.4799H133.701ZM154.933 75.6399C155.999 74.6799 157.173 73.8665 158.453 73.1999C159.733 72.5332 160.853 72.1999 161.813 72.1999L160.893 68.5999C159.959 68.5999 158.866 68.9332 157.613 69.5999C156.386 70.2665 155.293 70.9999 154.333 71.7999L152.853 68.5999H150.453V87.9999H154.933V75.6399Z" fill="#99BAED"/>
<g clip-path="url(#clip0_19922_3)">
<path d="M50.5803 7.77572C44.6236 8.29687 40.0962 13.557 40.6169 19.5144L43.2968 50.1481L33.162 54.8734C29.7678 48.9756 22.3668 46.555 16.0846 49.4849C9.45122 52.5793 6.58174 60.4627 9.67428 67.097C12.768 73.7298 20.6523 76.6011 27.2873 73.5075C31.8398 71.3845 34.6184 67.0038 34.9143 62.3215L47.3265 56.5332L48.5196 70.1753C44.6133 72.7732 42.209 77.3697 42.6457 82.3735C43.2841 89.6661 49.7121 95.0581 57.003 94.421C64.2956 93.7826 69.6885 87.3551 69.0511 80.0641C68.447 73.1593 62.6501 67.9603 55.8458 67.9689L54.8707 56.8293L82.7388 43.8337C88.1593 41.3064 90.4502 34.7551 87.9231 29.3358L53.8559 45.2237L50.5803 7.77572ZM27.6756 64.9206C25.7785 68.2066 21.5764 69.3325 18.2905 67.4354C15.0045 65.5382 13.8787 61.336 15.7758 58.0502C17.6733 54.7635 21.8749 53.6383 25.1609 55.5355C28.4468 57.4326 29.5732 61.6339 27.6756 64.9206ZM61.7886 84.6157C59.8914 87.9017 55.6894 89.0276 52.4034 87.1305C49.1175 85.2333 47.9916 81.0313 49.8887 77.7453C51.7863 74.4586 55.9879 73.3335 59.2738 75.2306C62.5597 77.1277 63.6861 81.329 61.7886 84.6157Z" fill="#99BAED"/>
</g>
<defs>
<clipPath id="clip0_19922_3">
<rect width="74.2244" height="74.2244" fill="white" transform="translate(0 64.2802) rotate(-60)"/>
</clipPath>
</defs>
</svg>
